<svg width="805" height="174" viewBox="0 0 805 174" fill="none" xmlns="http://www.w3.org/2000/svg">
<mask id="mask0" mask-type="alpha" maskUnits="userSpaceOnUse" x="0" y="0" width="805" height="174">
<g clip-path="url(#clip0)">
<path d="M100.52 136.77H71.5202V118.33H100.52V136.77ZM62.5702 92.7699H81.0002V111.22H62.5702V92.7699ZM54.3002 66.9999H99.6802V85.3999H54.3002V66.9999ZM62.5702 41.1799H81.0002V59.5799H62.5702V41.1799ZM106.33 1.48994C61.9002 -11.3001 -10.9998 60.9999 1.39018 117.69C8.21018 148.94 38.5502 164.58 40.8902 165.74C74.2002 182.28 115.83 171.33 137.42 147.54C177.93 102.92 147.7 13.3899 106.33 1.53994" fill="#EB2626"/>
<path d="M194.85 44.47L215 41.22V62.22H239.23V79H215V104C215 108.24 215.747 111.623 217.24 114.15C218.734 116.677 221.734 117.94 226.24 117.94C228.487 117.934 230.729 117.73 232.94 117.33C235.086 116.969 237.193 116.403 239.23 115.64L242.07 131.34C239.436 132.401 236.725 133.26 233.96 133.91C230.362 134.697 226.684 135.063 223 135C218.342 135.145 213.699 134.385 209.33 132.76C205.965 131.45 202.986 129.31 200.67 126.54C198.423 123.712 196.868 120.397 196.13 116.86C195.238 112.724 194.808 108.501 194.85 104.27V44.47Z" fill="#EB2626"/>
<path d="M278.63 60.3C283.668 60.1612 288.696 60.8365 293.52 62.3C297.126 63.4352 300.401 65.4329 303.06 68.12C305.489 70.7209 307.232 73.8863 308.13 77.33C309.163 81.2449 309.665 85.2812 309.62 89.33V131.33C306.733 131.957 302.733 132.703 297.62 133.57C291.437 134.496 285.191 134.924 278.94 134.85C274.735 134.893 270.537 134.484 266.42 133.63C262.964 132.938 259.676 131.58 256.74 129.63C254.059 127.813 251.912 125.314 250.52 122.39C248.97 118.936 248.228 115.174 248.35 111.39C248.234 107.714 249.097 104.073 250.85 100.84C252.464 98.0078 254.769 95.6306 257.55 93.93C260.519 92.1534 263.769 90.8954 267.16 90.21C270.856 89.4379 274.623 89.0525 278.4 89.06C280.738 89.0479 283.074 89.1614 285.4 89.4C287.067 89.5627 288.719 89.857 290.34 90.28V88.46C290.409 86.9443 290.168 85.4304 289.634 84.0104C289.099 82.5905 288.281 81.294 287.23 80.2C285.15 78.12 281.54 77.0833 276.4 77.09C273 77.0894 269.604 77.3367 266.24 77.83C263.29 78.2362 260.388 78.9397 257.58 79.93L255.01 63.69C256.18 63.33 257.65 62.94 259.41 62.53C261.17 62.12 263.09 61.77 265.16 61.45C267.23 61.13 269.43 60.87 271.73 60.64C274.03 60.41 276.35 60.3 278.73 60.3H278.63ZM280.35 119.3C282.35 119.3 284.23 119.3 286.04 119.17C287.49 119.118 288.936 118.981 290.37 118.76V103.48C289.557 103.3 288.336 103.12 286.71 102.94C285.229 102.768 283.74 102.678 282.25 102.67C280.461 102.661 278.673 102.775 276.9 103.01C275.372 103.189 273.885 103.622 272.5 104.29C271.292 104.869 270.257 105.755 269.5 106.86C268.744 108.076 268.368 109.489 268.42 110.92C268.42 114.08 269.48 116.27 271.6 117.49C273.72 118.71 276.6 119.31 280.33 119.31" fill="#EB2626"/>
<path d="M348.33 118.91C352.03 118.91 354.647 118.55 356.18 117.83C357.72 117.1 358.48 115.71 358.48 113.63C358.48 112.01 357.48 110.63 355.48 109.37C352.583 107.732 349.548 106.35 346.41 105.24C343.482 104.17 340.612 102.948 337.81 101.58C335.396 100.429 333.181 98.8999 331.25 97.0499C329.427 95.2688 327.997 93.1263 327.05 90.7599C325.993 87.9495 325.487 84.9617 325.56 81.9599C325.56 75.2932 328.044 70.0132 333.01 66.1199C337.977 62.2266 344.79 60.2866 353.45 60.2999C357.627 60.289 361.796 60.6741 365.9 61.4499C369.133 62.0315 372.311 62.8845 375.4 63.9999L371.88 79.6999C369.374 78.8398 366.824 78.1154 364.24 77.5299C361.195 76.8682 358.086 76.5496 354.97 76.5799C348.65 76.5799 345.49 78.3399 345.49 81.8599C345.482 82.5935 345.622 83.3211 345.9 83.9999C346.268 84.7432 346.827 85.3749 347.52 85.8299C348.573 86.5528 349.684 87.1882 350.84 87.7299C352.23 88.4099 354.02 89.1599 356.18 89.9799C359.961 91.3248 363.637 92.9458 367.18 94.8299C369.72 96.1696 372.024 97.916 374 99.9999C375.621 101.759 376.825 103.861 377.52 106.15C378.233 108.697 378.57 111.335 378.52 113.98C378.52 121 375.88 126.313 370.6 129.92C365.32 133.527 357.854 135.327 348.2 135.32C339.829 135.508 331.503 134.039 323.7 131L327.08 114.62C330.507 115.969 334.039 117.032 337.64 117.8C341.153 118.558 344.736 118.943 348.33 118.95" fill="#EB2626"/>
<path d="M392.86 44.47L413 41.22V62.22H437.23V79H413V104C413 108.24 413.744 111.623 415.23 114.15C416.717 116.677 419.717 117.94 424.23 117.94C426.477 117.935 428.719 117.73 430.93 117.33C433.079 116.969 435.189 116.403 437.23 115.64L440.07 131.34C437.432 132.401 434.718 133.26 431.95 133.91C428.355 134.697 424.68 135.063 421 135C416.342 135.145 411.699 134.385 407.33 132.76C403.964 131.448 400.982 129.309 398.66 126.54C396.42 123.708 394.869 120.394 394.13 116.86C393.234 112.724 392.802 108.502 392.84 104.27L392.86 44.47Z" fill="#EB2626"/>
<path d="M447.68 98.3399C447.563 92.6733 448.551 87.0382 450.59 81.7499C452.322 77.331 454.923 73.3047 458.24 69.9099C461.334 66.7905 465.042 64.3487 469.13 62.7399C473.156 61.1266 477.453 60.2984 481.79 60.2999C491.89 60.2999 499.89 63.3899 505.79 69.5699C511.69 75.7499 514.62 84.8433 514.58 96.8499C514.58 98.0199 514.58 99.3099 514.45 100.7C514.32 102.09 514.27 103.34 514.18 104.43H468.39C468.569 106.405 469.184 108.315 470.19 110.024C471.197 111.732 472.57 113.196 474.21 114.31C477.644 116.77 482.24 118 488 118C491.657 118.005 495.306 117.671 498.9 117C501.894 116.489 504.822 115.647 507.63 114.49L510.34 130.87C508.943 131.527 507.495 132.069 506.01 132.49C504.038 133.076 502.035 133.554 500.01 133.92C497.797 134.32 495.43 134.653 492.91 134.92C490.393 135.191 487.862 135.328 485.33 135.33C479.626 135.454 473.951 134.486 468.61 132.48C464.162 130.784 460.143 128.128 456.84 124.7C453.686 121.366 451.318 117.368 449.91 113C448.39 108.281 447.637 103.348 447.68 98.3899V98.3399ZM495.05 90.6699C494.963 88.9735 494.667 87.2942 494.17 85.6699C493.715 84.0617 492.932 82.5651 491.87 81.2743C490.808 79.9836 489.491 78.9266 488 78.1699C486.142 77.312 484.105 76.9109 482.06 76.9999C480.059 76.9456 478.071 77.3385 476.24 78.1499C474.683 78.8626 473.298 79.903 472.18 81.1999C471.074 82.4955 470.223 83.9883 469.67 85.5999C469.094 87.2486 468.666 88.9453 468.39 90.6699H495.05Z" fill="#EB2626"/>
<path d="M573.49 92.5199C571.677 99.3733 569.76 106.183 567.74 112.95C565.72 119.717 563.577 126.53 561.31 133.39H545.61C543.977 129.603 542.21 125.093 540.31 119.86C538.41 114.627 536.443 108.92 534.41 102.74C532.37 96.5533 530.287 90.01 528.16 83.11C526.033 76.21 523.98 69.24 522 62.2H543.25C543.97 65.4533 544.763 68.9933 545.63 72.82C546.497 76.6466 547.403 80.5933 548.35 84.66C549.31 88.7333 550.31 92.8199 551.35 96.9199C552.39 101.02 553.457 104.967 554.55 108.76C555.723 104.76 556.873 100.7 558 96.58C559.127 92.46 560.21 88.3766 561.25 84.33C562.29 80.33 563.29 76.45 564.25 72.69C565.21 68.93 566.043 65.4333 566.75 62.2H581.37C582.09 65.4533 582.903 68.95 583.81 72.69C584.717 76.43 585.663 80.31 586.65 84.33C587.643 88.33 588.68 92.4133 589.76 96.58C590.85 100.73 591.97 104.79 593.15 108.76C594.23 104.967 595.317 101.02 596.41 96.9199C597.503 92.8199 598.527 88.7333 599.48 84.66C600.427 80.6 601.333 76.6533 602.2 72.82C603.067 68.9866 603.86 65.4466 604.58 62.2H625.58C623.58 69.2333 621.523 76.2033 619.41 83.11C617.297 90.0166 615.213 96.5599 613.16 102.74C611.12 108.92 609.12 114.627 607.16 119.86C605.2 125.093 603.413 129.603 601.8 133.39H586.1C583.84 126.543 581.63 119.73 579.47 112.95C577.31 106.17 575.31 99.3599 573.47 92.5199" fill="#EB2626"/>
<path d="M658.29 41.62C658.372 43.2498 658.093 44.8776 657.472 46.3868C656.851 47.896 655.905 49.2494 654.7 50.35C652.359 52.4006 649.352 53.5311 646.24 53.5311C643.128 53.5311 640.121 52.4006 637.78 50.35C636.577 49.2485 635.632 47.8947 635.013 46.3855C634.394 44.8763 634.117 43.249 634.2 41.62C634.117 39.991 634.394 38.3636 635.013 36.8545C635.632 35.3453 636.577 33.9915 637.78 32.89C640.121 30.8393 643.128 29.7089 646.24 29.7089C649.352 29.7089 652.359 30.8393 654.7 32.89C655.905 33.9906 656.851 35.3439 657.472 36.8532C658.093 38.3624 658.372 39.9902 658.29 41.62ZM656.39 133.39H636.22V62.2H656.39V133.39Z" fill="#EB2626"/>
<path d="M695.78 118.91C699.48 118.91 702.09 118.55 703.63 117.83C705.17 117.11 705.93 115.71 705.93 113.63C705.93 112.01 704.93 110.63 702.93 109.37C700.034 107.73 696.999 106.348 693.86 105.24C690.935 104.17 688.068 102.948 685.27 101.58C682.855 100.427 680.637 98.8979 678.7 97.0499C676.884 95.2658 675.457 93.124 674.51 90.7599C673.447 87.9647 672.934 84.99 673 81.9999C673 75.3333 675.48 70.0533 680.44 66.16C685.4 62.2666 692.214 60.3266 700.88 60.3399C705.057 60.329 709.226 60.7141 713.33 61.4899C716.568 62.0582 719.753 62.8978 722.85 63.9999L719.33 79.6999C716.821 78.8412 714.267 78.1168 711.68 77.5299C708.636 76.8673 705.526 76.5486 702.41 76.5799C696.09 76.5799 692.934 78.3399 692.94 81.8599C692.925 82.6029 693.062 83.3411 693.34 84.0299C693.723 84.7649 694.296 85.3833 695 85.8199C696.05 86.5431 697.157 87.1786 698.31 87.7199C699.71 88.3866 701.494 89.1366 703.66 89.9699C707.441 91.3142 711.118 92.9352 714.66 94.8199C717.207 96.1502 719.518 97.8901 721.5 99.9699C723.119 101.731 724.321 103.833 725.02 106.12C725.729 108.668 726.065 111.305 726.02 113.95C726.02 120.97 723.38 126.283 718.1 129.89C712.82 133.497 705.354 135.297 695.7 135.29C687.314 135.497 678.97 134.039 671.15 131L674.53 114.62C677.953 115.969 681.482 117.032 685.08 117.8C688.597 118.558 692.183 118.944 695.78 118.95" fill="#EB2626"/>
<path d="M737.6 98.3399C737.482 92.6733 738.471 87.0382 740.51 81.7499C742.246 77.3328 744.847 73.3072 748.16 69.9099C751.255 66.7925 754.963 64.3511 759.05 62.7399C763.076 61.1266 767.373 60.2984 771.71 60.2999C781.81 60.2999 789.81 63.3899 795.71 69.5699C801.61 75.7499 804.544 84.8433 804.51 96.8499C804.51 98.0199 804.46 99.3099 804.37 100.7C804.28 102.09 804.19 103.34 804.1 104.43H758.31C758.489 106.405 759.104 108.315 760.11 110.024C761.117 111.732 762.49 113.196 764.13 114.31C767.557 116.737 772.16 117.953 777.94 117.96C781.593 117.965 785.239 117.631 788.83 116.96C791.825 116.451 794.753 115.609 797.56 114.45L800.27 130.83C798.874 131.488 797.426 132.03 795.94 132.45C793.968 133.036 791.965 133.514 789.94 133.88C787.734 134.28 785.367 134.613 782.84 134.88C780.323 135.151 777.792 135.288 775.26 135.29C769.556 135.414 763.881 134.446 758.54 132.44C754.093 130.742 750.075 128.086 746.77 124.66C743.621 121.336 741.251 117.353 739.83 113C738.309 108.281 737.556 103.348 737.6 98.3899V98.3399ZM785 90.6199C784.913 88.9235 784.617 87.2442 784.12 85.6199C783.648 84.0384 782.866 82.5665 781.82 81.2899C780.744 79.9923 779.409 78.9331 777.9 78.1799C776.055 77.3238 774.033 76.9193 772 76.9999C769.999 76.9477 768.011 77.3404 766.18 78.1499C764.625 78.8653 763.241 79.9053 762.12 81.1999C761.017 82.496 760.169 83.9889 759.62 85.5999C759.036 87.2469 758.604 88.944 758.33 90.6699L785 90.6199Z" fill="#EB2626"/>
</g>
</mask>
<g mask="url(#mask0)">
<rect x="-127" y="-162" width="1033" height="417" fill="#E43025"/>
</g>
<defs>
<clipPath id="clip0">
<rect width="804.47" height="173.66" fill="white"/>
</clipPath>
</defs>
</svg>
