<svg width="50" height="36" viewBox="0 0 50 36" fill="none" xmlns="http://www.w3.org/2000/svg">
<path d="M17.7 2L19.3434 0.860199C18.7301 -0.0242043 17.5268 -0.264599 16.6207 0.316238L17.7 2ZM22 8.2L23.2035 9.79737C24.0613 9.1511 24.2555 7.94272 23.6434 7.0602L22 8.2ZM12.9 16.6L11.2007 15.5453C10.8179 16.1621 10.7993 16.9379 11.1522 17.5723C11.5051 18.2066 12.1741 18.6 12.9 18.6V16.6ZM18.1 19L16.6257 20.3514C16.6453 20.3728 16.6653 20.3937 16.6858 20.4142L18.1 19ZM17.7 30.7L19.0862 32.1417L19.0873 32.1406L17.7 30.7ZM4.7 30.3L3.21086 31.6351C3.21922 31.6444 3.22767 31.6537 3.23621 31.6628L4.7 30.3ZM38.4 16.6L36.7007 15.5453C36.3179 16.1621 36.2993 16.9379 36.6522 17.5723C37.0051 18.2066 37.6741 18.6 38.4 18.6V16.6ZM43.6 19L42.1257 20.3514C42.1453 20.3728 42.1653 20.3937 42.1858 20.4142L43.6 19ZM43.2 30.7L44.5862 32.1417L44.5873 32.1406L43.2 30.7ZM30.2 30.3L28.7109 31.6351C28.7192 31.6444 28.7277 31.6537 28.7362 31.6628L30.2 30.3ZM43.2 2L44.8434 0.860199C44.2301 -0.0242043 43.0268 -0.264599 42.1207 0.316238L43.2 2ZM47.5 8.2L48.7035 9.79737C49.5613 9.1511 49.7555 7.94272 49.1434 7.0602L47.5 8.2ZM16.0566 3.13979L20.3566 9.3398L23.6434 7.0602L19.3434 0.860199L16.0566 3.13979ZM20.7965 6.60263C18.3325 8.45908 16.301 10.1196 14.7184 11.5804C13.1582 13.0206 11.9434 14.3487 11.2007 15.5453L14.5993 17.6547C15.0566 16.9179 15.9585 15.8794 17.4316 14.5196C18.8823 13.1804 20.8008 11.6076 23.2035 9.79737L20.7965 6.60263ZM12.9 18.6C14.2881 18.6 15.5017 19.1253 16.6257 20.3514L19.5743 17.6485C17.7649 15.6747 15.5119 14.6 12.9 14.6V18.6ZM16.6858 20.4142C17.851 21.5794 18.4 22.9068 18.4 24.5H22.4C22.4 21.8265 21.4157 19.4873 19.5142 17.5858L16.6858 20.4142ZM18.4 24.5C18.4 26.3319 17.7393 27.8856 16.3127 29.2594L19.0873 32.1406C21.2607 30.0477 22.4 27.4681 22.4 24.5H18.4ZM16.3138 29.2583C14.9636 30.5566 13.3646 31.2 11.4 31.2V35.2C14.3687 35.2 16.9698 34.1767 19.0862 32.1417L16.3138 29.2583ZM11.4 31.2C9.28255 31.2 7.58138 30.4598 6.16379 28.9372L3.23621 31.6628C5.41862 34.0069 8.18412 35.2 11.4 35.2V31.2ZM6.18914 28.9649C4.81991 27.4377 4.1 25.5292 4.1 23.1H0.1C0.1 26.4041 1.11343 29.2956 3.21086 31.6351L6.18914 28.9649ZM4.1 23.1C4.1 16.7428 8.56207 10.2333 18.7793 3.68375L16.6207 0.316238C6.03793 7.10005 0.1 14.6572 0.1 23.1H4.1ZM38.4 18.6C39.7881 18.6 41.0017 19.1253 42.1257 20.3514L45.0743 17.6485C43.2649 15.6747 41.0119 14.6 38.4 14.6V18.6ZM42.1858 20.4142C43.351 21.5794 43.9 22.9068 43.9 24.5H47.9C47.9 21.8265 46.9157 19.4873 45.0142 17.5858L42.1858 20.4142ZM43.9 24.5C43.9 26.3319 43.2393 27.8856 41.8127 29.2594L44.5873 32.1406C46.7607 30.0477 47.9 27.4681 47.9 24.5H43.9ZM41.8138 29.2583C40.4636 30.5566 38.8647 31.2 36.9 31.2V35.2C39.8687 35.2 42.4698 34.1767 44.5862 32.1417L41.8138 29.2583ZM36.9 31.2C34.7826 31.2 33.0814 30.4598 31.6638 28.9372L28.7362 31.6628C30.9186 34.0069 33.6841 35.2 36.9 35.2V31.2ZM31.6891 28.9649C30.3199 27.4377 29.6 25.5292 29.6 23.1H25.6C25.6 26.4041 26.6134 29.2956 28.7109 31.6351L31.6891 28.9649ZM29.6 23.1C29.6 16.7428 34.0621 10.2333 44.2793 3.68375L42.1207 0.316238C31.5379 7.10005 25.6 14.6572 25.6 23.1H29.6ZM41.5566 3.13979L45.8566 9.3398L49.1434 7.0602L44.8434 0.860199L41.5566 3.13979ZM46.2965 6.60263C43.8325 8.45908 41.801 10.1196 40.2184 11.5804C38.6582 13.0206 37.4434 14.3487 36.7007 15.5453L40.0993 17.6547C40.5566 16.9179 41.4585 15.8794 42.9316 14.5196C44.3824 13.1804 46.3008 11.6076 48.7035 9.79737L46.2965 6.60263Z" fill="#19100C"/>
</svg>
