<svg width="46" height="32" viewBox="0 0 46 32" fill="none" xmlns="http://www.w3.org/2000/svg">
<path d="M15.7 -4.29153e-06L20 6.2C15.1333 9.86666 12.1 12.6667 10.9 14.6C12.9 14.6 14.6333 15.4 16.1 17C17.6333 18.5333 18.4 20.3667 18.4 22.5C18.4 24.9 17.5 26.9667 15.7 28.7C13.9667 30.3667 11.8667 31.2 9.4 31.2C6.73333 31.2 4.5 30.2333 2.7 28.3C0.966667 26.3667 0.1 23.9667 0.1 21.1C0.1 13.7 5.3 6.66666 15.7 -4.29153e-06ZM36.4 14.6C38.4 14.6 40.1333 15.4 41.6 17C43.1333 18.5333 43.9 20.3667 43.9 22.5C43.9 24.9 43 26.9667 41.2 28.7C39.4667 30.3667 37.3667 31.2 34.9 31.2C32.2333 31.2 30 30.2333 28.2 28.3C26.4667 26.3667 25.6 23.9667 25.6 21.1C25.6 13.7 30.8 6.66666 41.2 -4.29153e-06L45.5 6.2C40.6333 9.86666 37.6 12.6667 36.4 14.6Z" fill="#F5B757"/>
</svg>
