<svg width="155" height="78" viewBox="0 0 155 78" fill="none" xmlns="http://www.w3.org/2000/svg">
<path d="M66.946 57.4025C66.9655 57.3136 66.9895 57.2259 67.0177 57.1395C69.0724 52.6409 71.1301 48.1392 73.1908 43.6346C73.2346 43.5408 73.2589 43.4389 73.2625 43.3353C73.2203 43.3998 73.1815 43.4664 73.146 43.5348C72.25 45.0132 71.3541 46.5006 70.4581 47.9609C69.9709 48.7325 69.3661 49.4213 68.6662 50.0016C67.9408 50.6105 67.0441 50.9723 66.1038 51.0355C65.7889 51.0893 65.4657 51.0615 65.1644 50.9546C64.863 50.8478 64.5933 50.6654 64.3804 50.4245C64.1674 50.1836 64.0183 49.8921 63.9468 49.577C63.8753 49.262 63.8837 48.9338 63.9714 48.6229C64.179 47.5663 64.5224 46.5418 64.9928 45.5755C65.6379 44.0971 66.3009 42.6278 66.9191 41.1404C67.1368 40.5807 67.3105 40.0045 67.4388 39.4171C67.4881 39.1809 67.4881 38.9368 67.4388 38.7006C67.4193 38.5709 67.3542 38.4526 67.2554 38.3676C67.1566 38.2826 67.0308 38.2366 66.9012 38.2381C66.7119 38.2218 66.5213 38.2448 66.3411 38.3056C66.1608 38.3664 65.9947 38.4638 65.8529 38.5918C65.4322 38.9399 65.0952 39.3803 64.8674 39.8797C64.4194 40.8139 64.0162 41.7209 63.613 42.6278C62.4722 45.2218 61.3433 47.8127 60.2263 50.4006C60.2035 50.4812 60.1532 50.551 60.0843 50.5975C60.0153 50.6441 59.9323 50.6643 59.85 50.6546C58.8645 50.6546 57.8879 50.6546 56.9024 50.6546H56.6425C56.6678 50.5642 56.7008 50.4762 56.7411 50.3916L60.9252 40.6325C61.0775 40.2878 61.2119 39.9341 61.3463 39.5713C61.4162 39.4141 61.4447 39.2413 61.429 39.0696C61.4133 38.8979 61.354 38.7333 61.2567 38.5918C61.2065 38.5008 61.1388 38.421 61.0577 38.3569C60.9765 38.2929 60.8835 38.246 60.7841 38.2189C60.6847 38.1919 60.581 38.1852 60.479 38.1994C60.3771 38.2136 60.279 38.2484 60.1905 38.3016C59.8764 38.4973 59.6001 38.7493 59.3752 39.0453C58.7674 39.8847 58.2676 40.799 57.8879 41.7662C56.7709 44.342 55.657 46.9209 54.546 49.5027C54.4026 49.8383 54.2683 50.1648 54.1159 50.4913C54.0952 50.531 54.0659 50.5655 54.0303 50.5922C53.9946 50.6189 53.9534 50.6371 53.9099 50.6455C52.7989 50.6455 51.6789 50.6455 50.568 50.6455H50.4694L54.0532 42.3557H54.0084L53.8203 42.6097C52.8616 43.9429 51.9656 45.3488 50.9801 46.7727C50.1695 47.9756 49.1918 49.0539 48.0772 49.9743C47.5735 50.4014 46.9831 50.711 46.348 50.8813C46.0031 50.9833 45.6354 50.9734 45.2963 50.8531C44.9573 50.7327 44.664 50.5079 44.4576 50.2102C43.9203 49.4341 43.6842 48.4848 43.7946 47.5436C43.8109 47.4782 43.8109 47.4096 43.7946 47.3441C43.7946 47.4167 43.7139 47.4802 43.6691 47.5527C42.8723 48.871 41.7058 49.9193 40.3183 50.5639C39.9054 50.7827 39.4485 50.903 38.9826 50.9156C38.5168 50.9282 38.0542 50.8327 37.6304 50.6364C37.1061 50.4218 36.6562 50.0549 36.3374 49.5821C36.0185 49.1092 35.8449 48.5515 35.8385 47.979C35.8325 46.7595 36.0862 45.5531 36.5821 44.4418C37.8338 41.1934 40.0421 38.4133 42.9076 36.4785C43.7719 35.8555 44.7541 35.4201 45.7925 35.1997C46.3232 35.0669 46.8817 35.1056 47.3895 35.3106C47.8973 35.5156 48.3289 35.8764 48.6237 36.3425C48.7044 36.1792 48.7671 35.9978 48.8656 35.8346C48.8888 35.795 48.9198 35.7608 48.9569 35.7342C48.994 35.7077 49.0361 35.6893 49.0807 35.6804H52.6645H52.7272C52.7272 35.7711 52.6645 35.8527 52.6287 35.9343C51.1055 39.2085 49.5735 42.4827 48.0593 45.7569C47.8227 46.3054 47.6309 46.8727 47.4859 47.4529C47.3515 47.9155 47.683 48.2057 48.122 48.0243C48.4453 47.8882 48.7472 47.7049 49.018 47.4802C49.862 46.7318 50.6194 45.889 51.2758 44.9678C53.3436 42.2634 55.1329 39.352 56.6156 36.279C56.6674 36.108 56.7783 35.9616 56.9281 35.8666C57.0778 35.7717 57.2564 35.7345 57.431 35.762C58.3269 35.762 59.2946 35.762 60.2263 35.762H60.4862L59.9307 37.0499L60.1367 36.8867C61.0017 36.1357 62.0162 35.5819 63.1113 35.2632C63.4693 35.1772 63.8398 35.1587 64.2044 35.2088C64.5148 35.2665 64.8035 35.4096 65.039 35.6224C65.2745 35.8351 65.4476 36.1094 65.5393 36.415C65.6469 36.669 65.7185 36.9411 65.8081 37.2223L66.498 36.5874C67.2031 35.9139 68.0717 35.4414 69.0156 35.2178C69.4634 35.1407 69.9208 35.1407 70.3685 35.2178C70.5586 35.2198 70.7461 35.2628 70.9184 35.344C71.0907 35.4252 71.2439 35.5427 71.3677 35.6887C71.4916 35.8347 71.5832 36.0057 71.6365 36.1904C71.6897 36.3751 71.7034 36.5692 71.6766 36.7597C71.6889 37.5588 71.5395 38.3521 71.2376 39.0906C70.7 40.4602 70.1087 41.8116 69.5353 43.1629C68.9619 44.5143 68.4154 45.7478 67.8688 47.0448C67.7717 47.2905 67.7172 47.5513 67.7076 47.8157C67.6926 47.9155 67.7049 48.0174 67.743 48.1106C67.7812 48.2038 67.8438 48.2846 67.9241 48.3444C68.0043 48.4041 68.0992 48.4406 68.1984 48.4497C68.2976 48.4588 68.3974 48.4403 68.487 48.3962C68.8788 48.2574 69.2236 48.0089 69.4815 47.6797C69.9654 47.0992 70.4581 46.5097 70.9061 45.8657C72.4726 43.6755 73.8201 41.333 74.9289 38.873C75.8249 36.9502 76.7208 35.0092 77.6168 33.0683C77.641 32.9935 77.6897 32.9293 77.7549 32.8864C77.8201 32.8435 77.8978 32.8245 77.9752 32.8325C79.0503 32.8325 80.1344 32.8325 81.2633 32.8325L79.4714 36.9683L79.6148 36.8504C80.3274 36.1493 81.159 35.584 82.0697 35.1816C82.6018 34.9239 83.2002 34.8414 83.781 34.9457C84.2066 35.0363 84.5932 35.2603 84.8859 35.5859C85.1786 35.9116 85.3625 36.3222 85.4116 36.7597C85.4922 37.1678 85.5012 37.576 85.555 38.0023C85.6205 38.0088 85.6865 38.0088 85.7521 38.0023L88.8879 36.9502C89.05 36.8949 89.1868 36.7822 89.2732 36.6327C91.2133 33.3975 93.5195 30.4024 96.1451 27.7081C97.2247 26.5506 98.4265 25.5165 99.7289 24.6243C100.457 24.1092 101.28 23.7454 102.148 23.5541C102.465 23.496 102.79 23.496 103.107 23.5541C103.453 23.6566 103.758 23.8685 103.978 24.1589C104.197 24.4493 104.319 24.8031 104.325 25.1685C104.344 25.7671 104.201 26.3596 103.913 26.8827C103.34 27.9466 102.595 28.9061 101.709 29.7216C99.6256 31.7295 97.2911 33.4523 94.7654 34.846C94.6451 34.9325 94.516 35.0055 94.3801 35.0636C94.103 35.1812 93.855 35.3593 93.6537 35.585C93.4523 35.8108 93.3027 36.0787 93.2154 36.3697L93.4393 36.2427C94.2399 35.7225 95.1044 35.3109 96.0107 35.0183C96.3602 34.9152 96.7287 34.8962 97.0868 34.9627C97.4448 35.0292 97.7826 35.1794 98.0732 35.4013C98.3638 35.6233 98.5992 35.9109 98.7607 36.2412C98.9222 36.5715 99.0052 36.9354 99.0032 37.3039C99.0064 38.0145 98.9006 38.7213 98.6896 39.399C98.6896 39.4806 98.6359 39.5713 98.6 39.7164L99.6035 39.5623L100.607 39.399C100.58 39.067 100.58 38.7333 100.607 38.4013C100.762 37.7095 101.114 37.0788 101.619 36.5874C102.64 35.5173 103.949 34.7732 105.382 34.4469C106.35 34.1745 107.353 34.0492 108.357 34.075C108.805 34.0968 109.248 34.1792 109.674 34.3199C109.882 34.38 110.075 34.4862 110.238 34.6309C110.401 34.7756 110.53 34.9552 110.616 35.1567C110.701 35.3581 110.742 35.5764 110.734 35.7956C110.726 36.0148 110.67 36.2295 110.57 36.4241C110.384 36.8324 110.101 37.1877 109.746 37.4581C108.87 38.1295 107.876 38.6252 106.816 38.9183C106.099 39.136 105.373 39.2992 104.621 39.4988C104.682 39.5756 104.748 39.6483 104.818 39.7164C105.275 40.1109 105.835 40.3629 106.431 40.442C106.78 40.5055 107.13 40.5327 107.479 40.5871L107.766 40.6416C107.497 41.1223 107.246 41.5485 106.977 42.0383C106.977 42.0836 106.843 42.0927 106.771 42.0927C105.694 42.1191 104.632 42.3563 103.644 42.7911C102.562 43.2898 101.66 44.1171 101.064 45.1583C100.836 45.5144 100.717 45.9311 100.723 46.3555C100.733 46.6745 100.858 46.9789 101.074 47.2112C101.29 47.4435 101.583 47.5875 101.897 47.6162C102.354 47.6443 102.81 47.5537 103.223 47.3532C104.191 46.8653 105.094 46.2559 105.911 45.5392C107.582 44.1766 108.968 42.4899 109.988 40.5781C112.795 35.493 115.596 30.4078 118.392 25.3227C118.526 25.0778 118.66 24.833 118.822 24.5971C118.846 24.5614 118.878 24.5316 118.915 24.5096C118.953 24.4877 118.994 24.4742 119.037 24.4702H122.621H122.701C122.653 24.5669 122.609 24.6576 122.567 24.7423C119.12 31.1032 115.674 37.452 112.227 43.7888C111.824 44.5416 111.484 45.3306 111.125 46.1106C111.054 46.281 111.009 46.4615 110.991 46.6457C110.959 46.7564 110.956 46.8737 110.984 46.9857C111.011 47.0978 111.067 47.2004 111.146 47.2834C111.225 47.3663 111.325 47.4265 111.435 47.4579C111.544 47.4893 111.66 47.4907 111.771 47.462C112.147 47.4071 112.501 47.2469 112.792 46.9995C113.409 46.5173 113.969 45.9632 114.458 45.3488C115.594 43.9169 116.584 42.3733 117.415 40.7413L125.568 25.749C125.783 25.3681 125.998 24.9871 126.222 24.6153C126.246 24.5747 126.279 24.5399 126.318 24.5132C126.356 24.4866 126.4 24.4688 126.446 24.4611H130.03H130.147L130.003 24.7332C126.563 31.082 123.125 37.4309 119.691 43.7797C119.288 44.5234 118.947 45.3034 118.616 46.0834C118.512 46.343 118.458 46.6198 118.454 46.8997C118.447 46.9887 118.462 47.0781 118.497 47.16C118.532 47.242 118.587 47.3139 118.656 47.3695C118.725 47.425 118.806 47.4625 118.893 47.4787C118.98 47.4948 119.069 47.4891 119.153 47.462C119.515 47.3557 119.855 47.1836 120.157 46.9541C120.852 46.3711 121.511 45.744 122.128 45.0767C124.718 42.107 127.056 38.9212 129.116 35.5534C129.157 35.4801 129.215 35.4184 129.286 35.374C129.356 35.3296 129.437 35.304 129.519 35.2995L132.369 34.9548C132.476 34.9548 132.593 34.9548 132.718 34.9548C132.619 35.5353 132.521 36.0976 132.422 36.6509C132.185 38.0858 132.122 39.5448 132.234 40.9953C132.464 43.3515 131.993 45.7236 130.881 47.8067C130.827 47.9064 130.765 48.0062 130.702 48.106C130.639 48.2057 130.595 48.2874 130.496 48.4325C130.98 48.4325 131.392 48.4325 131.849 48.4325C132.996 48.3781 134.134 48.3055 135.271 48.242C135.46 48.242 135.693 48.1513 135.809 48.3599C135.841 48.4577 135.845 48.5627 135.819 48.6625C135.794 48.7622 135.74 48.8524 135.666 48.9222C135.022 49.9222 134.036 50.6458 132.897 50.9539C131.529 51.2115 130.115 50.9291 128.946 50.1648C128.891 50.1293 128.827 50.1104 128.762 50.1104C128.697 50.1104 128.633 50.1293 128.579 50.1648C127.619 50.7123 126.543 51.018 125.442 51.0558C124.341 51.0937 123.247 50.8628 122.253 50.3825V50.3825C121.592 50.1033 121.063 49.5771 120.775 48.9132L119.96 49.6206C119.351 50.1534 118.657 50.5767 117.908 50.8722C117.306 51.1169 116.638 51.1332 116.025 50.9182C115.413 50.7032 114.898 50.2713 114.575 49.7022C114.304 49.2576 114.119 48.7653 114.028 48.2511C114.032 48.1907 114.032 48.1301 114.028 48.0697L113.948 48.0062C113.917 48.0875 113.875 48.1639 113.822 48.2329C113.028 49.0783 112.124 49.8105 111.134 50.4097C110.593 50.7566 109.98 50.9738 109.343 51.0446C108.691 51.1282 108.032 50.9625 107.495 50.5799C106.958 50.1974 106.582 49.6256 106.44 48.9767C106.274 48.3621 106.274 47.7138 106.44 47.0992L106.243 47.2897C105.282 48.2838 104.205 49.155 103.035 49.8836C102.117 50.449 101.102 50.8337 100.043 51.0174C99.5996 51.0948 99.1448 51.0643 98.7158 50.9285C98.2868 50.7927 97.8959 50.5555 97.5755 50.2364C97.255 49.9173 97.0143 49.5256 96.873 49.0936C96.7318 48.6616 96.6942 48.2018 96.7633 47.7523C96.8829 46.869 97.2427 46.0369 97.8026 45.3488C99.1314 43.6692 100.857 42.3559 102.82 41.5304C102.927 41.4817 103.038 41.4422 103.151 41.4125L103.465 41.3127C103.035 41.1495 102.569 41.0225 102.22 40.832C101.87 40.6416 101.503 40.4057 101.145 40.1971C101.078 40.1542 101 40.1321 100.921 40.1336L98.4477 40.7141C98.3768 40.7316 98.3111 40.7663 98.2565 40.8153C98.2018 40.8643 98.1598 40.9261 98.1341 40.9953C96.7831 43.8742 94.918 46.4756 92.633 48.6683C91.6696 49.6432 90.49 50.3708 89.1925 50.7906C88.5637 51.0177 87.8863 51.071 87.2304 50.9448C86.7367 50.81 86.2977 50.5208 85.976 50.1185C85.6542 49.7163 85.4661 49.2214 85.4385 48.7046C85.3262 47.1517 85.5056 45.5914 85.9671 44.1062C86.5232 42.1069 87.308 40.1801 88.3055 38.365C88.3555 38.2739 88.4003 38.1801 88.4399 38.0839L88.1622 38.1927C87.32 38.5374 86.4867 38.882 85.6445 39.2085C85.575 39.2323 85.5136 39.2756 85.4676 39.3334C85.4216 39.3913 85.3928 39.4612 85.3847 39.535C84.7597 42.7209 83.3584 45.6982 81.3081 48.1967C80.4122 49.3545 79.2277 50.2498 77.8766 50.7906C77.5154 50.927 77.1332 50.9976 76.7477 50.9992C76.4612 50.9904 76.1828 50.9008 75.9438 50.7406C75.7048 50.5804 75.5147 50.3558 75.3948 50.0922C75.0246 49.376 74.869 48.5659 74.9469 47.7613C74.9729 47.6787 74.9729 47.59 74.9469 47.5074L74.6512 48.1876L70.6463 57.2936C70.6424 57.3298 70.6424 57.3663 70.6463 57.4025H66.946ZM47.4859 38.1474C47.4859 38.0385 47.4859 37.9206 47.4859 37.8118C47.4052 36.9864 46.8945 36.6781 46.1688 37.059C45.8192 37.2445 45.4916 37.4697 45.1922 37.7302C44.1693 38.6729 43.2825 39.7568 42.5581 40.9499C41.6098 42.3928 40.8565 43.9576 40.3183 45.6027C40.1371 46.101 40.0786 46.6364 40.148 47.1627C40.17 47.285 40.2167 47.4015 40.285 47.5048C40.3533 47.6081 40.4419 47.6961 40.5453 47.7633C40.6486 47.8305 40.7645 47.8755 40.8858 47.8954C41.007 47.9153 41.131 47.9098 41.25 47.8792C41.6835 47.7541 42.0803 47.5237 42.4058 47.2081C42.9986 46.6695 43.5251 46.0604 43.9737 45.3941C45.0725 43.743 46.0603 42.0188 46.9304 40.2334C47.2441 39.5798 47.4326 38.872 47.4859 38.1474V38.1474ZM75.6636 47.0629C75.6834 47.2435 75.7163 47.4224 75.7622 47.5981C75.7868 47.6904 75.8306 47.7764 75.8907 47.8502C75.9508 47.924 76.0257 47.9839 76.1106 48.026C76.1954 48.0681 76.2882 48.0913 76.3826 48.0942C76.477 48.097 76.571 48.0794 76.6581 48.0425C76.8872 47.974 77.1004 47.86 77.2853 47.7069C77.6654 47.3991 78.019 47.0592 78.3425 46.6911C79.8329 44.8663 81.0192 42.8077 81.8547 40.5962C82.1706 39.869 82.3644 39.0934 82.4281 38.3016C82.4807 38.0716 82.4618 37.8309 82.3739 37.6123C82.2859 37.3937 82.1333 37.2081 81.9369 37.0808C81.7405 36.9536 81.5101 36.8911 81.2772 36.9018C81.0443 36.9125 80.8203 36.9959 80.6362 37.1406C80.3305 37.2919 80.0543 37.4978 79.8208 37.7483C79.3483 38.2728 78.917 38.8338 78.5307 39.4262C77.5667 41.1325 76.7714 42.931 76.1564 44.7955C75.8693 45.5173 75.7115 46.2851 75.6905 47.0629H75.6636ZM88.7446 46.4553C88.7446 46.5641 88.7446 46.6729 88.7446 46.7818C88.7626 47.0095 88.8649 47.222 89.031 47.3767C89.1971 47.5314 89.4148 47.6169 89.6405 47.6162C90.0456 47.621 90.4404 47.4868 90.7604 47.2353C91.2595 46.8768 91.6854 46.4241 92.0148 45.902C93.3026 43.9949 94.3162 41.9122 95.0252 39.7164C95.1856 39.1937 95.2671 38.6494 95.2671 38.102C95.2808 37.9134 95.2417 37.7246 95.1543 37.5574C95.0669 37.3902 94.9347 37.2513 94.7729 37.1567C94.6112 37.062 94.4263 37.0154 94.2396 37.0222C94.0528 37.029 93.8717 37.0889 93.7171 37.195C93.4862 37.305 93.2744 37.452 93.0899 37.6304C92.5978 38.1343 92.1426 38.6739 91.7281 39.2448C90.7046 40.8257 89.8714 42.5247 89.2463 44.3057C88.9707 44.9904 88.8102 45.717 88.7714 46.4553H88.7446ZM128.059 40.1064L122.477 47.1627C122.907 47.1627 123.373 47.2171 123.812 47.2897C124.708 47.4348 125.541 47.6253 126.401 47.7885C126.482 47.8218 126.572 47.8218 126.652 47.7885C127.216 47.26 127.615 46.5758 127.799 45.8204C128.02 44.5665 128.116 43.2934 128.086 42.0202C128.122 41.349 128.122 40.7413 128.122 40.1064H128.059ZM94.5234 34.1567C94.5922 34.1228 94.6581 34.0834 94.7206 34.0388C95.6882 33.286 96.6917 32.5695 97.6324 31.7713C99.2285 30.4352 100.589 28.8343 101.655 27.0369C101.934 26.5888 102.048 26.0559 101.978 25.5313C101.98 25.4414 101.958 25.3527 101.914 25.2744C101.871 25.1961 101.807 25.1312 101.73 25.0866C101.653 25.042 101.565 25.0194 101.476 25.021C101.387 25.0226 101.301 25.0485 101.225 25.096C100.966 25.1958 100.731 25.3504 100.535 25.5495C100.022 26.0729 99.5403 26.6272 99.0928 27.2092C97.4684 29.3822 95.9726 31.6506 94.613 34.0025L94.5234 34.1567ZM104.245 38.4739H104.343C105.525 38.1228 106.618 37.5198 107.551 36.7053C107.773 36.4917 107.969 36.251 108.133 35.9888C108.209 35.8887 108.251 35.7659 108.251 35.6396C108.251 35.5132 108.209 35.3904 108.133 35.2904C108.06 35.1866 107.957 35.1093 107.837 35.0701C107.718 35.0308 107.589 35.0318 107.47 35.0727C106.823 35.1985 106.213 35.4712 105.685 35.8702C105.158 36.2692 104.726 36.7842 104.424 37.3764C104.254 37.7151 104.201 38.1011 104.271 38.4739H104.245Z" fill="#EB2626"/>
<path d="M24.191 31.9618L23.295 31.5627C22.3472 31.1226 21.5738 30.3716 21.0999 29.4313C20.8902 29.0101 20.7703 28.549 20.7479 28.0778C20.7256 27.6067 20.8014 27.136 20.9704 26.6964C21.1393 26.2568 21.3977 25.8581 21.7287 25.5261C22.0598 25.1942 22.456 24.9364 22.8918 24.7694C23.9931 24.374 25.1875 24.3297 26.3144 24.6425C26.496 24.7012 26.6681 24.7868 26.8251 24.8964C26.8589 24.9193 26.8864 24.9503 26.9052 24.9868C26.924 25.0233 26.9334 25.0639 26.9326 25.105C26.9326 25.105 26.8251 25.2048 26.7534 25.2229C26.2875 25.3408 25.8127 25.4315 25.3468 25.5676C25.0641 25.6542 24.791 25.7697 24.5314 25.9122C24.0952 26.1726 23.745 26.5579 23.5249 27.0195C23.3049 27.4812 23.2249 27.9985 23.295 28.5062C23.3099 29.0216 23.4789 29.5203 23.7796 29.9365C24.0803 30.3526 24.4987 30.6667 24.9794 30.8371C25.1317 30.9006 25.1855 30.8371 25.2572 30.7283C26.2153 29.5905 27.2706 28.5404 28.4109 27.5901C31.6691 24.8154 35.4009 22.6668 39.4222 21.2504C40.7573 20.7679 42.1722 20.5523 43.5884 20.6155C44.1023 20.6419 44.611 20.7334 45.1025 20.8876C45.5927 21.049 46.0107 21.3805 46.2828 21.8236C46.555 22.2667 46.6637 22.7929 46.5898 23.3092C46.4089 24.5448 45.8067 25.6775 44.8875 26.5108C43.7533 27.5468 42.4878 28.4252 41.1245 29.1229C38.956 30.2782 36.6361 31.1149 34.2346 31.608C32.9803 31.8892 31.717 32.116 30.4537 32.3699C30.3639 32.3838 30.2816 32.4287 30.2207 32.4969C28.8246 34.2398 27.555 36.0827 26.4219 38.0113C25.4292 39.7733 24.6558 41.653 24.1193 43.6074C23.7787 44.8167 23.7787 46.0984 24.1193 47.3078C24.2479 47.8436 24.5256 48.3309 24.9194 48.7119C25.3132 49.0929 25.8067 49.3516 26.3413 49.4573C26.8233 49.5436 27.3199 49.4804 27.7658 49.276C28.501 48.9382 29.1713 48.4715 29.7459 47.8974C31.2116 46.4885 32.321 44.7434 32.9803 42.8092C33.3387 41.9771 33.5626 41.0921 33.6433 40.1881C33.6521 39.9539 33.6341 39.7196 33.5895 39.4897C33.5801 39.3442 33.5362 39.2033 33.4615 39.0787C33.3868 38.9541 33.2836 38.8495 33.1605 38.7739C33.0374 38.6982 32.8982 38.6537 32.7545 38.6441C32.6108 38.6345 32.467 38.6601 32.3352 38.7187C31.8862 38.8478 31.4745 39.0842 31.1346 39.408C30.0796 40.3569 29.4119 41.6698 29.2621 43.0904C29.2325 43.3774 29.1846 43.6622 29.1187 43.9429C29.1187 44.0336 28.9933 44.0971 28.9306 44.1787C28.8589 44.0971 28.7424 44.0336 28.7335 43.952C28.6592 43.4052 28.6293 42.8531 28.6439 42.3013C28.8036 40.379 29.6932 38.5942 31.1257 37.322C31.7273 36.76 32.4834 36.3963 33.2939 36.279C33.59 36.2119 33.8969 36.2096 34.194 36.2723C34.4911 36.3349 34.7716 36.461 35.0167 36.6421C35.2618 36.8233 35.4659 37.0553 35.6153 37.3227C35.7647 37.5901 35.8561 37.8867 35.8832 38.1927C36.0861 39.4724 35.95 40.7838 35.489 41.9929C34.563 44.6681 32.9815 47.0616 30.8927 48.9494C29.5978 50.1548 27.9859 50.9549 26.2517 51.2532C24.8285 51.5307 23.3543 51.2568 22.1213 50.4857C20.8883 49.7146 19.9865 48.5027 19.5947 47.0901C19.2462 45.9152 19.1096 44.6862 19.1916 43.4622C19.3682 41.0261 20.0979 38.6641 21.3239 36.5601C22.1383 35.0219 23.0668 33.5483 24.1014 32.1522L24.191 31.9618ZM31.3586 31.0004H31.6005C33.8884 30.685 36.1099 29.9926 38.1768 28.9506C40.0215 28.0641 41.7008 26.8613 43.1404 25.3953C43.6457 24.9199 44.051 24.3461 44.332 23.7083C44.4503 23.4216 44.5024 23.1114 44.4843 22.8013C44.417 22.5177 44.2558 22.2659 44.0277 22.0878C43.7995 21.9096 43.5181 21.8158 43.23 21.8218C42.4062 21.8077 41.5933 22.0142 40.8736 22.4204C38.408 23.6595 36.1952 25.358 34.3511 27.4269C33.4551 28.4336 32.5592 29.4948 31.6632 30.5287L31.3586 31.0004Z" fill="#EB2626"/>
<path d="M130.299 30.6648L130.496 30.3655C130.675 30.0934 130.854 29.8213 131.016 29.5401C131.079 29.4366 131.113 29.3173 131.113 29.1955C131.113 29.0737 131.079 28.9543 131.016 28.8508C130.835 28.5354 130.721 28.186 130.679 27.8241C130.638 27.4622 130.67 27.0955 130.774 26.7466C130.905 26.3253 131.18 25.9648 131.549 25.729C131.918 25.4932 132.357 25.3975 132.79 25.4587C133.243 25.5067 133.66 25.7276 133.958 26.0763C134.256 26.425 134.412 26.8755 134.393 27.3362C134.399 27.5802 134.352 27.8225 134.256 28.0464C134.16 28.2703 134.018 28.4705 133.838 28.6331C133.496 28.9607 133.117 29.2468 132.709 29.4857C132.001 29.8848 131.249 30.2294 130.523 30.5922L130.299 30.6648Z" fill="#433229" fill-opacity="0.41"/>
</svg>
