<svg width="26" height="26" viewBox="0 0 26 26" fill="none" xmlns="http://www.w3.org/2000/svg">
<g clip-path="url(#clip0)">
<path  d="M24.1125 10.9223H18.4057L18.201 6.95668C18.1877 6.69711 17.9733 6.49359 17.7134 6.49359H14.5714V5.29765C14.5714 2.65273 12.4193 0.500977 9.77385 0.500977C7.12844 0.500977 4.9763 2.65273 4.9763 5.29765V6.49359H1.83431C1.57445 6.49359 1.3601 6.69716 1.34672 6.95668L0.50287 23.3054C0.473085 23.8827 0.675917 24.4315 1.07401 24.8507C1.4722 25.27 2.01 25.5009 2.58832 25.5009H24.1125C24.8776 25.5009 25.5 24.8785 25.5 24.1134V12.3097C25.5 11.5447 24.8776 10.9223 24.1125 10.9223ZM5.95286 5.29765C5.95286 3.19121 7.66697 1.47754 9.7739 1.47754C11.8808 1.47754 13.5949 3.19125 13.5949 5.29765V6.49359H5.95286V5.29765ZM1.78212 24.1782C1.5702 23.9551 1.46224 23.663 1.47806 23.3558L2.29803 7.47015H4.9763V9.45799C4.9763 9.72767 5.19495 9.94627 5.46458 9.94627C5.73421 9.94627 5.95286 9.72767 5.95286 9.45799V7.47015H13.5949V9.45799C13.5949 9.72767 13.8135 9.94627 14.0832 9.94627C14.3528 9.94627 14.5714 9.72767 14.5714 9.45799V7.47015H17.2498L17.4279 10.9223H13.849C13.084 10.9223 12.4615 11.5447 12.4615 12.3097V18.8241H5.45569C5.18606 18.8241 4.96741 19.0427 4.96741 19.3124V24.5243H2.58832C2.28041 24.5244 1.99413 24.4014 1.78212 24.1782ZM5.94397 24.5244V19.8007H12.4615V24.5244H5.94397ZM24.5234 24.1135C24.5234 24.34 24.3391 24.5244 24.1125 24.5244H13.849C13.6224 24.5244 13.4381 24.34 13.4381 24.1135V12.3098C13.4381 12.0832 13.6224 11.8989 13.849 11.8989H24.1125C24.3391 11.8989 24.5234 12.0832 24.5234 12.3098V24.1135Z" fill="#000000"/>
<path   d="M22.3929 16.4526C21.9275 16.0127 21.2926 15.7704 20.605 15.7704C19.8129 15.7704 19.2983 16.0759 18.9796 16.3873C18.6615 16.0759 18.1477 15.7704 17.3564 15.7704C16.6689 15.7704 16.0342 16.0127 15.5692 16.4528C15.0614 16.9334 14.793 17.6026 14.793 18.3882C14.793 19.0629 14.9461 19.6226 15.2895 20.2029C15.5896 20.7099 16.2585 21.3631 17.2779 22.1443C17.6774 22.4504 18.0382 22.7048 18.2706 22.8644C18.7628 23.2025 18.8131 23.2338 18.9782 23.2338H18.9804C19.1446 23.2338 19.1967 23.2013 19.6869 22.8662C19.9195 22.7071 20.2808 22.4534 20.6807 22.1479C21.7014 21.368 22.3722 20.7137 22.6744 20.2029C23.0173 19.6236 23.1701 19.0639 23.1701 18.3882C23.1701 17.6026 22.9013 16.9333 22.3929 16.4526ZM21.8339 19.7055C21.3793 20.4739 19.6554 21.7189 18.9796 22.1682C18.3044 21.7177 16.5823 20.4702 16.13 19.7055C15.874 19.273 15.7695 18.8912 15.7695 18.3882C15.7695 17.2544 16.5666 16.747 17.3564 16.747C18.0331 16.747 18.3507 17.0755 18.498 17.3512C18.5931 17.5288 18.7773 17.6391 18.979 17.6392H18.9792C19.1808 17.6392 19.365 17.529 19.4602 17.3516C19.6082 17.0758 19.9269 16.7469 20.6051 16.7469C21.3958 16.7469 22.1936 17.2544 22.1936 18.3881C22.1935 18.8923 22.0893 19.2739 21.8339 19.7055Z" fill="#000000"/>
<path   d="M15.9824 14.6591H21.9792C22.2489 14.6591 22.4675 14.4404 22.4675 14.1708C22.4675 13.9011 22.2489 13.6825 21.9792 13.6825H15.9824C15.7128 13.6825 15.4941 13.9011 15.4941 14.1708C15.4941 14.4405 15.7128 14.6591 15.9824 14.6591Z" fill="#000000"/>
</g>
<defs>
<clipPath id="clip0">
<rect width="25" height="25" fill="#000000" transform="translate(0.5 0.5)"/>
</clipPath>
</defs>
</svg>
