<svg width="20" height="20" viewBox="0 0 20 20" fill="none" xmlns="http://www.w3.org/2000/svg">
<g clip-path="url(#clip0)">
<path d="M19.3094 7.00285L19.3034 6.98298C18.767 5.13738 18.0101 3.53813 17.2234 2.44349C16.3651 1.2515 15.4354 0.629674 14.6209 0.854165H14.6109C14.395 0.918731 14.1993 1.03778 14.0427 1.19984L2.52018 8.58621C2.07303 8.85167 1.69785 9.22273 1.42752 9.66694C1.27817 9.92953 1.20139 10.2271 1.20502 10.5291L0.823579 10.6404C0.523396 10.7274 0.270297 10.9305 0.120305 11.2046C-0.239279 11.8781 0.267317 13.372 0.847419 13.6839C1.12043 13.8344 1.44202 13.8701 1.74141 13.7833L2.11887 13.674C2.27746 13.9407 2.50632 14.1585 2.78043 14.3038C3.2463 14.5333 3.76129 14.6451 4.28035 14.6296H5.64716L6.66433 18.14C6.88713 18.9116 7.69331 19.3565 8.46493 19.1337C8.46537 19.1336 8.46582 19.1335 8.46622 19.1333C9.23133 18.9102 9.6743 18.1128 9.45954 17.3453L8.67879 14.6475L17.9564 14.6912C18.1769 14.7452 18.4076 14.7411 18.6259 14.6793C19.4405 14.4428 19.8994 13.4138 19.9848 11.9397C20.0623 10.5987 19.8438 8.84646 19.3094 7.00285ZM1.52884 13.0502C1.4236 13.0804 1.31071 13.0675 1.21495 13.0144C1.01628 12.9092 0.630874 11.8821 0.797752 11.5781C0.844588 11.4865 0.923954 11.4156 1.02026 11.3794L1.07588 11.3635L1.36991 11.2781L1.85664 12.9548L1.52884 13.0502ZM8.71455 17.5003C8.71823 17.5206 8.72354 17.5405 8.73044 17.5599C8.81453 17.9093 8.61929 18.2654 8.27947 18.3824L8.22782 18.3983C7.86824 18.4856 7.50324 18.276 7.3974 17.9215L6.44381 14.6395H7.88612L8.71455 17.5003ZM4.28432 13.8647C3.89236 13.8799 3.50248 13.8002 3.14796 13.6323C2.91905 13.513 2.74944 13.3045 2.67911 13.0562L2.01756 10.7775C1.94435 10.5302 1.97593 10.2637 2.10497 10.0404C2.31436 9.70906 2.60059 9.43306 2.93936 9.23584L13.3991 2.52494C13.3197 2.87772 13.2705 3.23661 13.2521 3.59773C13.1746 4.94269 13.3951 6.69889 13.9315 8.54846C14.4679 10.398 15.2248 12.0013 16.0135 13.0959C16.2228 13.3907 16.4567 13.6672 16.7128 13.9223L4.28432 13.8647ZM14.6745 8.3339C14.4957 7.7538 14.3586 7.18164 14.2533 6.63134L15.0261 6.41877C15.8946 6.18539 16.7888 6.69631 17.0287 7.56308C17.2621 8.43159 16.7511 9.32579 15.8844 9.56562L15.1433 9.76429V9.74045C14.9745 9.29345 14.8156 8.82262 14.6745 8.3339ZM19.2239 11.898L19.22 11.8999C19.1544 13.0383 18.8783 13.8111 18.4114 13.9482C17.9445 14.0853 17.2969 13.5787 16.6234 12.6529C16.1516 11.9732 15.7521 11.2461 15.4314 10.4835L16.083 10.3047C17.3561 9.95446 18.1066 8.64099 17.7618 7.3664C17.4116 6.09331 16.0981 5.34285 14.8235 5.68768L14.1282 5.88635C14.0173 5.1422 13.9793 4.38901 14.0149 3.63746C14.0805 2.51699 14.3467 1.75213 14.8096 1.59717L14.8593 1.58327C15.3261 1.47201 15.9618 1.9806 16.6155 2.88651C17.3565 3.91559 18.0697 5.43339 18.5822 7.19952C19.0868 8.9736 19.2974 10.6344 19.2239 11.898Z" fill="#19100C"/>
</g>
<defs>
<clipPath id="clip0">
<rect width="20" height="20" fill="white"/>
</clipPath>
</defs>
</svg>
