<svg width="20" height="20" viewBox="0 0 20 20" fill="none" xmlns="http://www.w3.org/2000/svg">
<path d="M0.0421944 7.72156C0.0421944 7.72156 0.0421944 7.72157 0.0421944 7.67937C0.0843887 7.63718 0.0843887 7.59498 0.126583 7.59498L9.66245 1.81439C9.70464 1.7722 9.74684 1.7722 9.78903 1.7722L19.6624 1.26587C19.8312 1.26587 19.9156 1.35026 20 1.47684C20 1.51903 20 1.56123 20 1.56123V4.38823C20 4.51481 19.9578 4.5992 19.8312 4.6414L17.384 6.16038L19.5359 7.55279C19.6203 7.63718 19.6624 7.72157 19.6624 7.84815L19.5359 12.1941C19.5359 12.2785 19.4937 12.4051 19.4093 12.4473L9.95781 18.692C9.91561 18.692 9.87342 18.7342 9.83122 18.7342C9.78903 18.7342 9.74684 18.7342 9.70464 18.692L0.253164 12.4473C0.168777 12.4051 0.126583 12.2785 0.126583 12.1941L0 7.84815C0 7.80595 0 7.76376 0.0421944 7.72156ZM9.91561 2.40511L1.4346 7.4684L10.1688 7.25743L18.481 1.94097L9.91561 2.40511ZM1.30802 8.10131L3.5865 9.53591H8.90295L9.74684 7.89034L1.30802 8.10131ZM19.3671 4.21946V2.15195L10.8017 7.63718L11.9409 8.73422L19.3671 4.21946ZM16.7511 6.49794L14.8523 7.72156L16.7932 9.02958L18.7342 7.80595L16.7511 6.49794ZM10.1266 17.8481L18.9451 11.9832L19.0295 8.39667L10.1266 13.9241V17.8481ZM9.78903 13.3756L16.2025 9.40933L14.2194 8.10131L12.0253 9.45152C11.8987 9.53591 11.73 9.49372 11.6456 9.40933L10.3376 8.14351L9.36709 10.0422C9.32489 10.1688 9.19831 10.211 9.07173 10.211H4.59916L9.78903 13.3756ZM0.675106 11.9832L9.49367 17.8481V13.9241L0.590717 8.39667L0.675106 11.9832Z" fill="#19100C"/>
</svg>
