<svg width="24" height="24" viewBox="0 0 24 24" fill="none" xmlns="http://www.w3.org/2000/svg">
<path d="M9.11207 22.5035L13.157 18.0217C13.8225 17.303 14.3492 16.4673 14.7105 15.5568L16.1349 11.9744C16.4506 11.1857 16.9045 10.4596 17.4752 9.83031L17.7482 10.1033C17.899 10.2541 18.1435 10.2541 18.2943 10.1033L19.9325 8.46516C20.0833 8.31438 20.0833 8.06989 19.9325 7.91911L19.0672 7.05388L20.7693 4.86582C20.8889 4.71214 20.8753 4.49351 20.7376 4.3558L19.6455 3.26369C19.5078 3.12605 19.2892 3.11246 19.1355 3.23202L16.9472 4.93381L16.1101 4.0967C15.9593 3.94592 15.7148 3.94592 15.564 4.0967L13.9258 5.73487C13.7751 5.88565 13.7751 6.13015 13.9258 6.28093L14.1716 6.52666C13.5424 7.09763 12.8163 7.55171 12.0275 7.8675L8.44478 9.29108C7.53529 9.65165 6.70043 10.1776 5.98261 10.8424L1.49347 14.8909C1.17918 15.1799 0.963858 15.5604 0.878059 15.9786C0.738609 16.6385 0.94222 17.3241 1.4192 17.8008L6.20049 22.5821C6.67743 23.0583 7.36246 23.2615 8.02186 23.1225C8.44134 23.036 8.82286 22.8194 9.11207 22.5035ZM19.3406 4.05083L19.9505 4.66078L18.5171 6.50372L17.4973 5.48396L19.3406 4.05083ZM15.837 4.91579L19.1134 8.19213L18.0213 9.28425L14.7449 6.0079L15.837 4.91579ZM7.86405 22.3662C7.45973 22.4516 7.03957 22.3275 6.74654 22.0361L1.96526 17.2548C1.67343 16.9617 1.54916 16.5411 1.63489 16.1365C1.68783 15.8774 1.82066 15.6414 2.01468 15.4618L6.503 11.4103C7.15223 10.8094 7.90702 10.3338 8.72928 10.0075L12.3125 8.58448C13.2008 8.23258 14.018 7.7227 14.7245 7.07954L16.9218 9.27688C16.2785 9.98327 15.7686 10.8004 15.4169 11.6888L13.9927 15.271C13.6657 16.0947 13.1888 16.8507 12.5864 17.5008L8.54144 21.9826C8.36127 22.1781 8.12438 22.3122 7.86405 22.3662Z" fill="#19100C"/>
<path d="M7.91884 20.9969L11.2935 17.2679C12.4975 15.9536 12.4081 13.9122 11.0938 12.7083C9.86022 11.5781 7.96752 11.5781 6.7339 12.7083L3.0046 16.0826C2.84644 16.2257 2.83423 16.4699 2.97729 16.628C2.98173 16.6329 2.98627 16.6377 2.99095 16.6424L7.35914 21.0105C7.50974 21.1615 7.75421 21.1618 7.90519 21.0112C7.90987 21.0066 7.91437 21.0018 7.91884 20.9969ZM3.82368 16.383L7.25266 13.2816C8.26116 12.3751 9.81364 12.4578 10.7201 13.4663C11.5591 14.3998 11.5591 15.8157 10.7201 16.7491L7.61879 20.1781L3.82368 16.383Z" fill="#19100C"/>
</svg>
