<svg width="20" height="20" viewBox="0 0 20 20" fill="none" xmlns="http://www.w3.org/2000/svg">
<path d="M17.1656 11.8084C19.9424 10.902 20 7.55225 20 7.41254C20 7.33881 19.9762 7.26707 19.9323 7.20808C19.851 7.09222 17.8496 4.41721 15.0728 5.32705C14.307 5.58698 13.5902 5.97524 12.9529 6.47543C13.2312 5.71092 13.3778 4.90422 13.3864 4.09007C13.3864 1.15267 10.2404 0.0622179 10.1084 0.0179183C10.0381 -0.00597277 9.96193 -0.00597277 9.89164 0.0179183C9.75957 0.0622179 6.61361 1.15267 6.61361 4.10711C6.62305 4.92117 6.76962 5.72773 7.04707 6.49247C6.40877 5.98579 5.68969 5.59173 4.92042 5.32705C2.14697 4.41721 0.149001 7.09222 0.0677277 7.20808C0.0237649 7.26707 0 7.33881 0 7.41254C0 7.55225 0.0575686 10.902 2.83441 11.8084C3.60596 12.0529 4.41347 12.1624 5.22181 12.1321C4.55041 12.585 3.96063 13.1496 3.47782 13.8019C1.76092 16.1873 3.67084 18.9134 3.7555 19.0361C3.79631 19.0975 3.85756 19.1422 3.92821 19.1622C4.471 19.3185 5.03311 19.3966 5.5977 19.3939C8.00203 19.3939 9.32272 17.9456 10 15.6454C10.6942 17.9592 12.0081 19.3939 14.4023 19.3939C14.9659 19.3951 15.5269 19.316 16.0684 19.1587C16.1391 19.1388 16.2003 19.094 16.2411 19.0327C16.3258 18.9168 18.2357 16.177 16.5188 13.7985C16.0353 13.148 15.447 12.5836 14.7782 12.1287C15.5863 12.1593 16.3937 12.051 17.1656 11.8084ZM10 0.709673C10.5147 0.914133 12.7091 1.91939 12.7091 4.09348C12.7091 6.0597 11.6051 8.10089 10.3793 9.6207C10.3183 9.59685 10.3386 9.92739 10.3386 5.79731C10.3386 5.60911 10.187 5.45654 10 5.45654C9.81298 5.45654 9.66136 5.60911 9.66136 5.79731V9.34809C9.2504 8.73044 8.78941 8.14802 8.2831 7.60678C7.67089 6.53535 7.33013 5.32877 7.29089 4.09348C7.29089 1.92621 9.48527 0.917541 10 0.709673ZM3.04436 11.161C0.995598 10.4794 0.717914 8.07703 0.673891 7.52159C1.01253 7.09222 2.65154 5.3032 4.70708 5.97451C6.56959 6.58448 8.15442 8.26786 9.21097 9.91717C9.17711 9.96147 9.46834 10.033 5.58754 8.76879C5.41244 8.7185 5.22916 8.81656 5.17267 8.99076C5.11619 9.16496 5.20671 9.35292 5.37758 9.41624L8.73349 10.5135C8.02069 10.7164 7.32625 10.9798 6.65764 11.3007C5.45996 11.5519 4.21936 11.5039 3.04436 11.161ZM8.4084 17.4072C7.14528 19.1622 4.78158 18.6817 4.24314 18.5454C3.94514 18.0717 2.75991 15.9555 4.02641 14.204C5.16424 12.6297 7.2638 11.6108 9.14324 11.1133C9.17372 11.161 9.3295 10.9156 6.93871 14.2279C6.84919 14.3799 6.89011 14.5757 7.03293 14.6786C7.17575 14.7815 7.37305 14.7574 7.4873 14.6231L9.56316 11.7471C9.53416 12.488 9.56701 13.2301 9.66136 13.9655C9.53454 15.1997 9.10389 16.3826 8.4084 17.4072ZM10 10.9088C9.81298 10.9088 9.66136 10.7562 9.66136 10.568C9.66136 10.3798 9.81298 10.2273 10 10.2273C10.187 10.2273 10.3386 10.3798 10.3386 10.568C10.3386 10.7562 10.187 10.9088 10 10.9088ZM15.9736 14.204C17.2401 15.9555 16.0549 18.0717 15.7569 18.5454C15.2184 18.6817 12.8547 19.1622 11.5916 17.4072C10.4402 15.8124 10.1456 13.5191 10.237 11.5563C10.2912 11.5563 10.0948 11.2939 12.4992 14.6231C12.5644 14.734 12.6861 14.7983 12.8138 14.7895C12.9415 14.7806 13.0534 14.7 13.1028 14.5812C13.1523 14.4624 13.131 14.3257 13.0477 14.2279L10.9821 11.3518C11.682 11.613 12.4024 11.8147 13.1358 11.955C14.2496 12.4609 15.2237 13.233 15.9736 14.204ZM11.0159 10.6328C11.0159 10.5749 10.7619 10.6805 14.619 9.41624C14.7899 9.35292 14.8804 9.16496 14.8239 8.99076C14.7675 8.81656 14.5842 8.7185 14.4091 8.76879L11.0532 9.85243C11.51 9.26602 11.9177 8.64256 12.2723 7.98844C13.0971 7.07638 14.1304 6.38044 15.2828 5.96088C17.3146 5.27935 18.9638 7.07859 19.316 7.50796C19.2821 8.06681 19.0112 10.476 16.9455 11.1473C15.0999 11.7709 12.8446 11.3484 11.0159 10.6328Z" fill="#19100C"/>
</svg>
