<svg width="24" height="24" viewBox="0 0 24 24" fill="none" xmlns="http://www.w3.org/2000/svg">
<path d="M23.625 19.54H21.375V19.087C21.3837 16.6576 20.393 14.3314 18.6353 12.6543C18.4896 12.507 18.2522 12.5057 18.1049 12.6513C17.9576 12.7969 17.9563 13.0344 18.1019 13.1816C18.1063 13.1861 18.1108 13.1904 18.1155 13.1947C19.7254 14.731 20.6328 16.8617 20.625 19.087V19.54H3.375V19.087C3.37997 14.5758 7.0358 10.92 11.547 10.915H12.453C13.1496 10.9146 13.8434 11.0028 14.5177 11.1775C14.7162 11.2369 14.9251 11.1242 14.9845 10.9258C15.0439 10.7274 14.9312 10.5184 14.7328 10.459C14.7237 10.4563 14.7145 10.4539 14.7052 10.4519C14.1873 10.3183 13.6584 10.2316 13.125 10.1928V9.04004C13.125 8.83295 12.957 8.66504 12.75 8.66504H11.25C11.0429 8.66504 10.875 8.83295 10.875 9.04004V10.1928C6.22462 10.5489 2.63109 14.4231 2.62495 19.087V19.54H0.375C0.167906 19.54 0 19.7079 0 19.915C0 20.1221 0.167906 20.29 0.375 20.29H23.625C23.8321 20.29 24 20.1221 24 19.915C24 19.7079 23.8321 19.54 23.625 19.54ZM11.625 9.41504H12.375V10.165H11.625V9.41504Z" fill="#19100C"/>
<path d="M15.8752 8.38121C16.2244 8.69284 16.5 8.93884 16.5 9.44096C16.5 9.94309 16.2244 10.1891 15.8752 10.5026C15.3445 10.8735 15.0201 11.4732 15 12.1203C15 12.3274 15.1679 12.4953 15.375 12.4953C15.5821 12.4953 15.75 12.3274 15.75 12.1203C15.75 11.6182 16.0256 11.3722 16.3748 11.0606C16.9058 10.6892 17.2303 10.0887 17.25 9.44096C17.2303 8.79329 16.9058 8.19301 16.3748 7.82171C16.0256 7.51009 15.75 7.26409 15.75 6.76234C15.75 6.26059 16.0256 6.01496 16.3748 5.70334C16.9058 5.33242 17.2303 4.73232 17.25 4.08484C17.25 3.87775 17.0821 3.70984 16.875 3.70984C16.6679 3.70984 16.5 3.87775 16.5 4.08484C16.5 4.58621 16.2244 4.83184 15.8752 5.14346C15.3441 5.51453 15.0196 6.11476 15 6.76234C15.0198 7.40987 15.3442 8.01006 15.8752 8.38121Z" fill="#19100C"/>
<path d="M18.1252 8.38121C18.4744 8.69284 18.75 8.93884 18.75 9.44096C18.75 9.94309 18.4744 10.191 18.1252 10.5011C17.5941 10.8723 17.2696 11.4726 17.25 12.1203C17.25 12.3274 17.4179 12.4953 17.625 12.4953C17.8321 12.4953 18 12.3274 18 12.1203C18 11.6182 18.2756 11.3722 18.6248 11.0606C19.1558 10.6892 19.4803 10.0887 19.5 9.44096C19.4803 8.79329 19.1558 8.19301 18.6248 7.82171C18.2756 7.51009 18 7.26409 18 6.76234C18 6.26059 18.2756 6.01496 18.6248 5.70334C19.1558 5.33242 19.4803 4.73232 19.5 4.08484C19.5 3.87775 19.3321 3.70984 19.125 3.70984C18.9179 3.70984 18.75 3.87775 18.75 4.08484C18.75 4.58621 18.4744 4.83184 18.1252 5.14346C17.5941 5.51453 17.2696 6.11476 17.25 6.76234C17.2698 7.40987 17.5942 8.01006 18.1252 8.38121Z" fill="#19100C"/>
<path d="M20.3752 8.38121C20.7244 8.69284 21 8.93884 21 9.44096C21 9.94309 20.7244 10.191 20.3752 10.5011C19.8441 10.8723 19.5196 11.4726 19.5 12.1203C19.5 12.3274 19.6679 12.4953 19.875 12.4953C20.0821 12.4953 20.25 12.3274 20.25 12.1203C20.25 11.6182 20.5256 11.3722 20.8748 11.0606C21.4058 10.6892 21.7303 10.0887 21.75 9.44096C21.7303 8.79329 21.4058 8.19301 20.8748 7.82171C20.5256 7.51009 20.25 7.26409 20.25 6.76234C20.25 6.26059 20.5256 6.01496 20.8748 5.70334C21.4058 5.33242 21.7303 4.73232 21.75 4.08484C21.75 3.87775 21.5821 3.70984 21.375 3.70984C21.1679 3.70984 21 3.87775 21 4.08484C21 4.58621 20.7244 4.83184 20.3752 5.14346C19.8441 5.51453 19.5196 6.11476 19.5 6.76234C19.5198 7.40987 19.8442 8.01006 20.3752 8.38121Z" fill="#19100C"/>
</svg>
