<svg width="20" height="20" viewBox="0 0 20 20" fill="none" xmlns="http://www.w3.org/2000/svg">
<g clip-path="url(#clip0)">
<path d="M11.5806 19.9744C11.9946 19.9818 12.3716 19.7366 12.5327 19.3552L19.9203 1.48941C20.1428 0.947254 19.8837 0.32736 19.3415 0.104847C19.2172 0.0538235 19.0843 0.0268536 18.9498 0.0254364C18.8085 0.0254784 18.6687 0.0536156 18.5383 0.108139L0.62052 7.49469C0.233601 7.65251 -0.0138817 8.03484 0.000583649 8.45244C0.304132 14.7081 5.32357 19.7023 11.5806 19.9744ZM13.3864 15.5455C12.4288 14.9517 12.1339 13.694 12.7277 12.7364C13.1887 11.9929 14.0724 11.6262 14.9244 11.8246L13.3864 15.5455ZM17.5692 5.42712L17.3571 5.43679C17.1731 5.44538 17.031 5.60149 17.0395 5.78544C17.0402 5.79912 17.0417 5.81279 17.044 5.82629L17.1494 6.44256L16.9049 7.03415L16.6995 7.06917C15.9098 7.20498 15.1594 6.67483 15.0237 5.88507C15.0236 5.8847 15.0235 5.88432 15.0235 5.88399L14.8941 5.12999C14.7586 4.33981 15.2893 3.58941 16.0795 3.45393H16.0796L16.6212 3.36122L16.8326 4.59509C16.8638 4.77663 17.0362 4.89851 17.2177 4.86734C17.2312 4.865 17.2446 4.86183 17.2578 4.85787L17.8837 4.66812L17.5692 5.42712ZM11.5333 3.71704C12.0463 4.71944 11.6495 5.94793 10.6471 6.4609C9.6447 6.97388 8.41621 6.57716 7.90323 5.57473C7.85246 5.47547 7.80986 5.37222 7.77597 5.26601L11.5333 3.71704ZM7.1537 5.5225C7.64024 6.9374 9.18166 7.69002 10.5966 7.20352C12.0115 6.71697 12.7641 5.17555 12.2776 3.76065C12.2425 3.65848 12.2013 3.55852 12.1542 3.46131L18.7904 0.724783C18.9898 0.64258 19.2181 0.737537 19.3003 0.936916C19.3396 1.03229 19.3396 1.1393 19.3003 1.23467L18.2108 3.86915L17.4258 4.10992L17.2221 2.92107C17.191 2.73953 17.0187 2.61752 16.8372 2.64858C16.8371 2.64858 16.837 2.64862 16.8369 2.64862L15.9669 2.79769C14.8138 2.99556 14.0394 4.09066 14.2371 5.24375L14.3662 5.99774C14.5504 7.07255 15.5205 7.83188 16.6081 7.75251L15.1819 11.2033C13.7408 10.807 12.2513 11.6539 11.8549 13.095C11.5262 14.29 12.0514 15.5556 13.1296 16.1668L12.7655 17.0482C7.67288 16.3471 3.67143 12.3385 2.97955 7.24462L7.1537 5.5225ZM0.874632 8.11162L2.34194 7.50736C3.13549 12.7586 7.25303 16.8829 12.503 17.6851L11.9168 19.1004C11.8678 19.2238 11.7494 19.3057 11.6166 19.3082H11.6053C5.69481 19.0508 0.953665 14.3329 0.667206 8.42376C0.664497 8.28666 0.747158 8.16223 0.874632 8.11162Z" fill="#19100C"/>
<path d="M8.16622 13.6473H8.93122C10.1008 13.646 11.0485 12.6983 11.0498 11.5287V10.646C11.0498 10.4619 10.9005 10.3126 10.7163 10.3126H9.59351L9.79659 8.68651C9.81944 8.50377 9.6898 8.33711 9.50705 8.31427C9.49338 8.31256 9.47958 8.31168 9.46578 8.31168H7.71502C7.53086 8.31172 7.38159 8.46108 7.38163 8.64525C7.38163 8.65904 7.38251 8.6728 7.38421 8.68651L7.5873 10.3126H6.38111C6.19695 10.3126 6.04763 10.4619 6.04763 10.646V11.5287C6.04893 12.6983 6.99667 13.6461 8.16622 13.6473ZM6.71459 10.9795H7.96513C8.1493 10.9795 8.29857 10.8301 8.29853 10.6459C8.29853 10.6322 8.29765 10.6184 8.29594 10.6047L8.09286 8.97864H9.08795L8.88487 10.6047C8.86202 10.7874 8.99166 10.9541 9.17441 10.9769C9.18808 10.9786 9.20188 10.9795 9.21567 10.9795H10.3828V11.5287C10.3819 12.3301 9.73257 12.9795 8.93122 12.9804H8.16622C7.36487 12.9795 6.71551 12.3301 6.71459 11.5287V10.9795Z" fill="#19100C"/>
<path d="M12.0498 9.31203C12.0498 9.12786 11.9005 8.97856 11.7163 8.97856C11.5322 8.97856 11.3828 9.12786 11.3828 9.31203C11.3828 9.49621 11.5322 9.64551 11.7163 9.64551C11.9005 9.64551 12.0498 9.49621 12.0498 9.31203Z" fill="#19100C"/>
<path d="M5.04688 9.64553C5.04688 9.46136 4.89757 9.31205 4.7134 9.31205C4.52922 9.31205 4.37992 9.46136 4.37992 9.64553C4.37992 9.8297 4.52922 9.979 4.7134 9.979C4.89757 9.979 5.04688 9.8297 5.04688 9.64553Z" fill="#19100C"/>
<path d="M11.0498 15.3147C11.0498 15.1305 10.9005 14.9812 10.7163 14.9812C10.5322 14.9812 10.3828 15.1305 10.3828 15.3147C10.3828 15.4989 10.5322 15.6482 10.7163 15.6482C10.9005 15.6482 11.0498 15.4989 11.0498 15.3147Z" fill="#19100C"/>
<path d="M6.38086 7.64467C6.38086 7.4605 6.23156 7.31119 6.04738 7.31119C5.86321 7.31119 5.7139 7.4605 5.7139 7.64467C5.7139 7.82885 5.86321 7.97815 6.04738 7.97815C6.23156 7.97815 6.38086 7.82885 6.38086 7.64467Z" fill="#19100C"/>
<path d="M13.7178 6.9778C13.7178 6.79363 13.5685 6.64432 13.3843 6.64432C13.2001 6.64432 13.0508 6.79363 13.0508 6.9778C13.0508 7.16198 13.2001 7.31128 13.3843 7.31128C13.5685 7.31128 13.7178 7.16198 13.7178 6.9778Z" fill="#19100C"/>
<path d="M14.3848 9.97902C14.3848 9.79484 14.2355 9.64554 14.0513 9.64554C13.8671 9.64554 13.7178 9.79484 13.7178 9.97902C13.7178 10.1632 13.8671 10.3125 14.0513 10.3125C14.2355 10.3125 14.3848 10.1632 14.3848 9.97902Z" fill="#19100C"/>
</g>
<defs>
<clipPath id="clip0">
<rect width="20" height="20" fill="white" transform="translate(20 20) rotate(-180)"/>
</clipPath>
</defs>
</svg>
