<svg width="63" height="62" viewBox="0 0 63 62" fill="none" xmlns="http://www.w3.org/2000/svg">
<path d="M62.0011 26.1597H35.4297V0.0544819C38.2267 -0.256295 45.4989 0.61388 52.2116 6.5808C58.9244 12.5477 61.535 22.1196 62.0011 26.1597Z" fill="url(#paint0_linear)"/>
<path d="M54.6967 32.7483H28.8401V6.89164C28.8401 6.34244 28.3948 5.89716 27.8456 5.89716C12.4669 5.89716 0 18.364 0 33.7428C0 49.1215 12.4669 61.5884 27.8456 61.5884C43.2243 61.5884 55.6912 49.1215 55.6912 33.7428C55.6912 33.1936 55.2459 32.7483 54.6967 32.7483ZM27.8456 59.5994C13.5654 59.6028 1.98624 48.0292 1.98276 33.749C1.97952 19.8509 12.9633 8.4362 26.8511 7.90502V33.7428C26.8511 34.292 27.2964 34.7373 27.8456 34.7373H53.6834C53.1323 48.6128 41.7321 59.5826 27.8456 59.5994Z" fill="#19100C"/>
<path d="M31.8226 1.91919C31.2734 1.91919 30.8281 2.36447 30.8281 2.91368V29.7648C30.8281 30.314 31.2734 30.7593 31.8226 30.7593H58.6737C59.2229 30.7593 59.6682 30.314 59.6682 29.7648C59.6507 14.3934 47.194 1.93672 31.8226 1.91919ZM32.8171 28.7703V3.92706C46.309 4.46396 57.1235 15.2784 57.6604 28.7703H32.8171Z" fill="#19100C"/>
<defs>
<linearGradient id="paint0_linear" x1="61.0633" y1="3.93856e-09" x2="38.5457" y2="24.4332" gradientUnits="userSpaceOnUse">
<stop stop-color="#9BDC6A"/>
<stop offset="0.304549" stop-color="#93D462"/>
<stop offset="1" stop-color="#72C854"/>
</linearGradient>
</defs>
</svg>
