<svg width="64" height="63" viewBox="0 0 64 63" fill="none" xmlns="http://www.w3.org/2000/svg">
<path d="M56.1111 28.5556C56.1111 23.1056 54.495 17.778 51.4672 13.2465C48.4393 8.71502 44.1357 5.18316 39.1006 3.09754C34.0655 1.01193 28.525 0.466235 23.1797 1.52947C17.8345 2.59271 12.9245 5.21712 9.07084 9.07084C5.21712 12.9245 2.59271 17.8345 1.52947 23.1797C0.466235 28.525 1.01193 34.0655 3.09754 39.1006C5.18316 44.1357 8.71502 48.4393 13.2465 51.4672C17.778 54.495 23.1056 56.1111 28.5556 56.1111L28.5556 41.4795C25.9994 41.4795 23.5007 40.7216 21.3754 39.3015C19.25 37.8814 17.5935 35.8629 16.6153 33.5014C15.6372 31.1398 15.3812 28.5412 15.8799 26.0342C16.3786 23.5272 17.6095 21.2244 19.4169 19.4169C21.2244 17.6095 23.5272 16.3786 26.0342 15.8799C28.5412 15.3812 31.1398 15.6372 33.5014 16.6153C35.8629 17.5935 37.8814 19.25 39.3015 21.3754C40.7216 23.5007 41.4795 25.9994 41.4795 28.5556H56.1111Z" stroke="#19100C" stroke-width="2"/>
<path d="M63.0017 34.4603C63.0017 38.079 62.289 41.6622 60.9042 45.0054C59.5194 48.3486 57.4897 51.3863 54.9309 53.945C52.3721 56.5038 49.3344 58.5335 45.9912 59.9183C42.648 61.3031 39.0648 62.0159 35.4462 62.0159L35.4462 44.6947C36.7902 44.6947 38.121 44.4299 39.3627 43.9156C40.6044 43.4013 41.7326 42.6474 42.683 41.6971C43.6333 40.7467 44.3872 39.6185 44.9015 38.3768C45.4158 37.1351 45.6805 35.8043 45.6805 34.4603H63.0017Z" fill="#F5B757"/>
<path d="M60.0486 32.4921C60.0486 36.1108 59.3359 39.694 57.9511 43.0372C56.5663 46.3804 54.5365 49.4181 51.9778 51.9768C49.419 54.5356 46.3813 56.5653 43.0381 57.9501C39.6949 59.3349 36.1117 60.0477 32.4931 60.0477L32.4931 42.7265C33.837 42.7265 35.1679 42.4617 36.4096 41.9474C37.6513 41.4331 38.7795 40.6792 39.7298 39.7289C40.6802 38.7785 41.434 37.6503 41.9484 36.4086C42.4627 35.1669 42.7274 33.8361 42.7274 32.4921H60.0486Z" stroke="#19100C" stroke-width="2"/>
</svg>
